<svg xmlns="http://www.w3.org/2000/svg" viewBox="0 0 400 400">
  <defs>
    <linearGradient id="grad2" x1="0%" y1="0%" x2="100%" y2="100%">
      <stop offset="0%" style="stop-color:#0fb6d6;stop-opacity:1" />
      <stop offset="100%" style="stop-color:#f0b429;stop-opacity:1" />
    </linearGradient>
  </defs>
  <!-- Neural network nodes -->
  <circle cx="80" cy="120" r="15" fill="url(#grad2)"/>
  <circle cx="80" cy="200" r="15" fill="url(#grad2)"/>
  <circle cx="80" cy="280" r="15" fill="url(#grad2)"/>
  <circle cx="200" cy="80" r="15" fill="url(#grad2)"/>
  <circle cx="200" cy="160" r="15" fill="url(#grad2)"/>
  <circle cx="200" cy="240" r="15" fill="url(#grad2)"/>
  <circle cx="200" cy="320" r="15" fill="url(#grad2)"/>
  <circle cx="320" cy="120" r="15" fill="url(#grad2)"/>
  <circle cx="320" cy="200" r="15" fill="url(#grad2)"/>
  <circle cx="320" cy="280" r="15" fill="url(#grad2)"/>
  <!-- Connections -->
  <line x1="95" y1="120" x2="185" y2="80" stroke="url(#grad2)" stroke-width="2" opacity="0.5"/>
  <line x1="95" y1="120" x2="185" y2="160" stroke="url(#grad2)" stroke-width="2" opacity="0.5"/>
  <line x1="95" y1="200" x2="185" y2="160" stroke="url(#grad2)" stroke-width="2" opacity="0.5"/>
  <line x1="95" y1="200" x2="185" y2="240" stroke="url(#grad2)" stroke-width="2" opacity="0.5"/>
  <line x1="95" y1="280" x2="185" y2="240" stroke="url(#grad2)" stroke-width="2" opacity="0.5"/>
  <line x1="95" y1="280" x2="185" y2="320" stroke="url(#grad2)" stroke-width="2" opacity="0.5"/>
  <line x1="215" y1="80" x2="305" y2="120" stroke="url(#grad2)" stroke-width="2" opacity="0.5"/>
  <line x1="215" y1="160" x2="305" y2="120" stroke="url(#grad2)" stroke-width="2" opacity="0.5"/>
  <line x1="215" y1="160" x2="305" y2="200" stroke="url(#grad2)" stroke-width="2" opacity="0.5"/>
  <line x1="215" y1="240" x2="305" y2="200" stroke="url(#grad2)" stroke-width="2" opacity="0.5"/>
  <line x1="215" y1="240" x2="305" y2="280" stroke="url(#grad2)" stroke-width="2" opacity="0.5"/>
  <line x1="215" y1="320" x2="305" y2="280" stroke="url(#grad2)" stroke-width="2" opacity="0.5"/>
  <!-- Central processing unit -->
  <rect x="150" y="150" width="100" height="100" rx="15" fill="url(#grad2)" opacity="0.3"/>
  <circle cx="200" cy="200" r="30" fill="none" stroke="url(#grad2)" stroke-width="3"/>
  <circle cx="200" cy="200" r="20" fill="url(#grad2)" opacity="0.6"/>
</svg>